<svg width="24" height="24" viewBox="0 0 24 24" fill="none" xmlns="http://www.w3.org/2000/svg">
<path d="M13.1657 13.1666H10.8324V6.16659H13.1657V13.1666ZM13.1657 17.8333H10.8324V15.4999H13.1657V17.8333ZM11.9991 0.333252C10.467 0.333252 8.94989 0.635019 7.53442 1.22132C6.11896 1.80763 4.83284 2.66699 3.74949 3.75034C1.56156 5.93826 0.332397 8.90573 0.332397 11.9999C0.332397 15.0941 1.56156 18.0616 3.74949 20.2495C4.83284 21.3328 6.11896 22.1922 7.53442 22.7785C8.94989 23.3648 10.467 23.6666 11.9991 23.6666C15.0933 23.6666 18.0607 22.4374 20.2486 20.2495C22.4366 18.0616 23.6657 15.0941 23.6657 11.9999C23.6657 10.4678 23.364 8.95074 22.7777 7.53528C22.1914 6.11981 21.332 4.83369 20.2486 3.75034C19.1653 2.66699 17.8792 1.80763 16.4637 1.22132C15.0482 0.635019 13.5312 0.333252 11.9991 0.333252Z" fill="#CD0000"/>
</svg>
