<svg width="34" height="34" viewBox="0 0 34 34" fill="none" xmlns="http://www.w3.org/2000/svg">
<path d="M18.6654 18.6666H15.332V8.66659H18.6654V18.6666ZM18.6654 25.3333H15.332V21.9999H18.6654V25.3333ZM16.9987 0.333252C14.81 0.333252 12.6427 0.764348 10.6206 1.60193C8.59855 2.4395 6.76123 3.66716 5.21358 5.21481C2.08798 8.34041 0.332031 12.5796 0.332031 16.9999C0.332031 21.4202 2.08798 25.6594 5.21358 28.785C6.76123 30.3327 8.59855 31.5603 10.6206 32.3979C12.6427 33.2355 14.81 33.6666 16.9987 33.6666C21.419 33.6666 25.6582 31.9106 28.7838 28.785C31.9094 25.6594 33.6654 21.4202 33.6654 16.9999C33.6654 14.8112 33.2343 12.644 32.3967 10.6219C31.5591 8.59977 30.3315 6.76245 28.7838 5.21481C27.2362 3.66716 25.3988 2.4395 23.3768 1.60193C21.3547 0.764348 19.1874 0.333252 16.9987 0.333252Z" fill="#CD0000"/>
</svg>
